<svg id="Capa_1" data-name="Capa 1" xmlns="http://www.w3.org/2000/svg" xmlns:xlink="http://www.w3.org/1999/xlink" viewBox="0 0 775.32 362.27"><defs><style>.cls-1{font-size:24px;}.cls-1,.cls-22,.cls-26,.cls-33,.cls-9{fill:#494849;}.cls-1,.cls-14,.cls-22,.cls-26,.cls-33{font-family:Montserrat-SemiBold, Montserrat SemiBold;}.cls-2{letter-spacing:0em;}.cls-3{letter-spacing:0em;}.cls-4{letter-spacing:0em;}.cls-5,.cls-7,.cls-8{fill:none;}.cls-30,.cls-5,.cls-7,.cls-8{stroke:#cb3c83;stroke-miterlimit:10;}.cls-5,.cls-7{stroke-width:2px;}.cls-14,.cls-6{fill:#cb3c83;}.cls-7{opacity:0.31;}.cls-8{stroke-width:1.54px;opacity:0.07;}.cls-9{font-size:21px;font-family:Montserrat-Regular, Montserrat;}.cls-10{letter-spacing:0em;}.cls-11{letter-spacing:0em;}.cls-12{letter-spacing:-0.01em;}.cls-13{letter-spacing:0em;}.cls-14{font-size:18.68px;}.cls-15{letter-spacing:0em;}.cls-16{letter-spacing:-0.02em;}.cls-17{letter-spacing:-0.01em;}.cls-18{letter-spacing:-0.01em;}.cls-19{letter-spacing:0em;}.cls-20{letter-spacing:0em;}.cls-21{letter-spacing:-0.01em;}.cls-22,.cls-26{font-size:17.93px;}.cls-23{letter-spacing:0.01em;}.cls-24{letter-spacing:0em;}.cls-25{letter-spacing:0em;}.cls-26{letter-spacing:-0.02em;}.cls-27{letter-spacing:0em;}.cls-28{letter-spacing:0.02em;}.cls-29{letter-spacing:-0.02em;}.cls-30{fill:url(#Degradado_sin_nombre_19);}.cls-31{letter-spacing:0em;}.cls-32{letter-spacing:0em;}.cls-33{font-size:16px;}.cls-34{letter-spacing:-0.01em;}.cls-35{letter-spacing:-0.01em;}.cls-36{letter-spacing:-0.02em;}.cls-37{letter-spacing:0em;}.cls-38{letter-spacing:0.01em;}.cls-39{letter-spacing:-0.02em;}.cls-40{letter-spacing:0em;}.cls-41{letter-spacing:0em;}.cls-42{letter-spacing:-0.01em;}</style><radialGradient id="Degradado_sin_nombre_19" cx="569.1" cy="20.27" r="9" gradientUnits="userSpaceOnUse"><stop offset="0" stop-color="#fff"/><stop offset="1" stop-color="#cb3c83"/></radialGradient></defs><title>Sin título-6</title><text class="cls-1" transform="translate(78.26 65.84)">S<tspan class="cls-2" x="15.1" y="0">c</tspan><tspan class="cls-3" x="28.92" y="0">h</tspan><tspan class="cls-4" x="45.48" y="0">ool</tspan></text><line class="cls-5" x1="117.1" y1="20.27" x2="569.1" y2="20.27"/><circle class="cls-6" cx="119.1" cy="19.27" r="9"/><circle class="cls-7" cx="119.1" cy="19.27" r="13.5"/><circle class="cls-8" cx="119.1" cy="19.27" r="18.5"/><text class="cls-9" transform="translate(26.26 110.93) rotate(-0.05)">Sum<tspan class="cls-10" x="49.33" y="0">m</tspan><tspan class="cls-11" x="71.65" y="0">e</tspan><tspan class="cls-12" x="84.33" y="0">r</tspan><tspan class="cls-13" x="92.59" y="0">hill S</tspan><tspan class="cls-12" x="142.17" y="0">c</tspan><tspan class="cls-10" x="153.82" y="0">h</tspan><tspan x="168.08" y="0">ool </tspan></text><text class="cls-14" transform="translate(249.26 111.32)"><tspan class="cls-15">2</tspan><tspan x="10.82" y="0">000 - </tspan><tspan class="cls-15" x="66.04" y="0">2</tspan><tspan x="76.85" y="0">004</tspan></text><text class="cls-9" transform="translate(20.93 205.1) rotate(-0.05)">Institu<tspan class="cls-16" x="67.66" y="0">t</tspan><tspan x="75.79" y="0">o </tspan><tspan class="cls-12" x="94.46" y="0">E</tspan><tspan x="108.34" y="0">ducati</tspan><tspan class="cls-17" x="175.1" y="0">v</tspan><tspan x="186.16" y="0">o</tspan><tspan x="60.69" y="25.2" xml:space="preserve"> A</tspan><tspan class="cls-10" x="81.25" y="25.2">n</tspan><tspan x="95.51" y="25.2">d</tspan><tspan class="cls-18" x="109.74" y="25.2">r</tspan><tspan class="cls-11" x="117.89" y="25.2">és Bello</tspan></text><text class="cls-14" transform="translate(249.26 215.32)"><tspan class="cls-15">2</tspan><tspan x="10.82" y="0">004 - </tspan><tspan class="cls-15" x="66.15" y="0">2</tspan><tspan x="76.97" y="0">0</tspan><tspan class="cls-19" x="89.54" y="0">0</tspan><tspan x="102.02" y="0">7</tspan></text><text class="cls-14" transform="translate(249.26 153.32)"><tspan class="cls-15">2</tspan><tspan x="10.82" y="0">0</tspan><tspan class="cls-19" x="23.39" y="0">0</tspan><tspan x="35.87" y="0">7 - </tspan><tspan class="cls-15" x="64.73" y="0">2</tspan><tspan class="cls-20" x="75.55" y="0">0</tspan><tspan x="88.03" y="0">16</tspan></text><text class="cls-9" transform="translate(5.99 305.11) rotate(-0.05)"><tspan class="cls-12">L</tspan><tspan x="12.2" y="0">o</tspan><tspan class="cls-10" x="25.37" y="0">n</tspan><tspan x="39.63" y="0">gfields D</tspan><tspan class="cls-21" x="134.17" y="0">a</tspan><tspan x="146.35" y="0">vidson</tspan><tspan x="87.61" y="25.2">High S</tspan><tspan class="cls-12" x="157.37" y="25.2">c</tspan><tspan class="cls-10" x="169.03" y="25.2">h</tspan><tspan x="183.29" y="25.2">ool</tspan></text><text class="cls-14" transform="translate(250.26 309.32)"><tspan class="cls-15">2</tspan><tspan class="cls-20" x="10.82" y="0">0</tspan><tspan x="23.3" y="0">13 - </tspan><tspan class="cls-15" x="58.79" y="0">2</tspan><tspan class="cls-19" x="69.61" y="0">0</tspan><tspan x="82.08" y="0">13</tspan></text><line class="cls-5" x1="242.6" y1="157.27" x2="242.6" y2="96.27"/><line class="cls-5" x1="242.1" y1="228.27" x2="242.1" y2="190.27"/><line class="cls-5" x1="242.1" y1="329.27" x2="242.1" y2="286.27"/><text class="cls-22" transform="translate(141 134.52)">B<tspan class="cls-23" x="13.65" y="0">a</tspan><tspan class="cls-24" x="24.62" y="0">c</tspan><tspan class="cls-25" x="34.95" y="0">h</tspan><tspan x="47.33" y="0">elor</tspan></text><text class="cls-26" transform="translate(141 255.52)">P<tspan class="cls-24" x="12.75" y="0">r</tspan><tspan class="cls-27" x="20.19" y="0">ima</tspan><tspan class="cls-28" x="55.15" y="0">r</tspan><tspan class="cls-27" x="62.95" y="0">y</tspan></text><text class="cls-22" transform="translate(0 357.52)">High s<tspan class="cls-24" x="58.63" y="0">c</tspan><tspan class="cls-25" x="68.96" y="0">h</tspan><tspan x="81.33" y="0">ool - in</tspan><tspan class="cls-29" x="143.92" y="0">t</tspan><tspan x="151.21" y="0">e</tspan><tspan class="cls-24" x="162.36" y="0">r</tspan><tspan x="169.8" y="0">nship</tspan></text><circle class="cls-30" cx="569.1" cy="20.27" r="9"/><circle class="cls-7" cx="569.1" cy="20.27" r="13.5"/><circle class="cls-8" cx="569.1" cy="20.27" r="18.5"/><text class="cls-9" transform="translate(439.26 110.93) rotate(-0.05)"><tspan class="cls-12">L</tspan><tspan x="12.2" y="0">os A</tspan><tspan class="cls-31" x="56.2" y="0">n</tspan><tspan class="cls-11" x="70.45" y="0">des Uni</tspan><tspan class="cls-17" x="149.64" y="0">v</tspan><tspan class="cls-11" x="160.71" y="0">e</tspan><tspan class="cls-32" x="173.39" y="0">r</tspan><tspan x="181.73" y="0">si</tspan><tspan class="cls-21" x="197.65" y="0">t</tspan><tspan x="205.97" y="0">y</tspan></text><text class="cls-33" transform="translate(454.71 134.52)"><tspan class="cls-34">S</tspan><tspan class="cls-35" x="9.9" y="0">y</tspan><tspan x="19.04" y="0">s</tspan><tspan class="cls-36" x="27.28" y="0">t</tspan><tspan class="cls-37" x="33.78" y="0">ems a</tspan><tspan class="cls-38" x="82.94" y="0">n</tspan><tspan x="93.98" y="0">d </tspan><tspan class="cls-39" x="109.39" y="0">C</tspan><tspan x="120.7" y="0">omputi</tspan><tspan class="cls-38" x="181.15" y="0">n</tspan><tspan x="192.19" y="0">g</tspan><tspan x="101.46" y="19.2">E</tspan><tspan class="cls-40" x="112.18" y="19.2">n</tspan><tspan class="cls-41" x="123.22" y="19.2">gi</tspan><tspan class="cls-40" x="138.94" y="19.2">n</tspan><tspan x="149.98" y="19.2">ee</tspan><tspan class="cls-42" x="169.89" y="19.2">r</tspan><tspan x="176.53" y="19.2">i</tspan><tspan class="cls-38" x="181.15" y="19.2">n</tspan><tspan x="192.19" y="19.2">g</tspan></text><text class="cls-1" transform="translate(460.26 65.84)">Hig<tspan class="cls-3" x="43.03" y="0">h</tspan><tspan x="59.59" y="0">er </tspan><tspan class="cls-42" x="91.22" y="0">E</tspan><tspan x="107.18" y="0">ducation</tspan></text><text class="cls-14" transform="translate(674.76 111.32)"><tspan class="cls-15">2</tspan><tspan class="cls-20" x="10.82" y="0">0</tspan><tspan x="23.3" y="0">17 - </tspan><tspan class="cls-15" x="59.27" y="0">2</tspan><tspan class="cls-19" x="70.09" y="0">0</tspan><tspan x="82.57" y="0">21</tspan></text><line class="cls-5" x1="668.1" y1="130.27" x2="668.1" y2="96.27"/></svg>