<svg id="Capa_1" data-name="Capa 1" xmlns="http://www.w3.org/2000/svg" xmlns:xlink="http://www.w3.org/1999/xlink" viewBox="0 0 296.48 706.83"><defs><style>.cls-1,.cls-19,.cls-20,.cls-3,.cls-4{fill:none;}.cls-1,.cls-18,.cls-19,.cls-20,.cls-3,.cls-4{stroke:#cb3c83;stroke-miterlimit:10;}.cls-1{stroke-width:2px;}.cls-2,.cls-29,.cls-5{fill:#cb3c83;}.cls-3{stroke-width:1.38px;}.cls-19,.cls-3{opacity:0.31;}.cls-4{stroke-width:1.06px;}.cls-20,.cls-4{opacity:0.07;}.cls-5{font-size:15.8px;}.cls-12,.cls-29,.cls-5{font-family:Montserrat-SemiBold, Montserrat SemiBold;}.cls-6{letter-spacing:0em;}.cls-7{letter-spacing:0.01em;}.cls-8{letter-spacing:-0.01em;}.cls-9{letter-spacing:0em;}.cls-10{letter-spacing:-0.01em;}.cls-11{letter-spacing:0em;}.cls-12{font-size:13.5px;}.cls-12,.cls-21{fill:#494849;}.cls-13{letter-spacing:-0.05em;}.cls-14{letter-spacing:-0.01em;}.cls-15{letter-spacing:0em;}.cls-16{letter-spacing:0em;}.cls-17{letter-spacing:0em;}.cls-18{stroke-width:0.69px;fill:url(#Degradado_sin_nombre_19);}.cls-19{stroke-width:1.38px;}.cls-20{stroke-width:1.06px;}.cls-21{font-size:14px;font-family:Montserrat-Regular, Montserrat;}.cls-22{letter-spacing:-0.01em;}.cls-23{letter-spacing:-0.02em;}.cls-24{letter-spacing:-0.01em;}.cls-25{letter-spacing:-0.01em;}.cls-26{letter-spacing:0em;}.cls-27{letter-spacing:-0.05em;}.cls-28{letter-spacing:-0.02em;}.cls-29{font-size:11.9px;}.cls-30{letter-spacing:-0.01em;}.cls-31{letter-spacing:0em;}.cls-32{letter-spacing:0em;}.cls-33{letter-spacing:0em;}.cls-34{letter-spacing:-0.01em;}.cls-35{letter-spacing:-0.01em;}.cls-36{letter-spacing:0em;}.cls-37{letter-spacing:0.01em;}.cls-38{letter-spacing:-0.02em;}.cls-39{letter-spacing:-0.01em;}.cls-40{letter-spacing:-0.01em;}.cls-41{letter-spacing:0em;}.cls-42{letter-spacing:-0.01em;}.cls-43{letter-spacing:0.02em;}.cls-44{letter-spacing:0em;}.cls-45{letter-spacing:-0.01em;}.cls-46{letter-spacing:0em;}.cls-47{letter-spacing:0.01em;}.cls-48{letter-spacing:0.08em;}.cls-49{letter-spacing:-0.02em;}.cls-50{letter-spacing:-0.02em;}.cls-51{letter-spacing:0em;}.cls-52{letter-spacing:0.01em;}.cls-53{letter-spacing:-0.02em;}.cls-54{letter-spacing:0em;}.cls-55{letter-spacing:-0.01em;}.cls-56{letter-spacing:-0.01em;}.cls-57{letter-spacing:-0.02em;}.cls-58{letter-spacing:0.01em;}.cls-59{letter-spacing:-0.02em;}.cls-60{letter-spacing:-0.01em;}.cls-61{letter-spacing:-0.01em;}.cls-62{letter-spacing:-0.02em;}.cls-63{letter-spacing:0em;}.cls-64{letter-spacing:-0.05em;}.cls-65{letter-spacing:-0.01em;}.cls-66{letter-spacing:-0.02em;}.cls-67{letter-spacing:0em;}.cls-68{letter-spacing:-0.01em;}.cls-69{letter-spacing:-0.01em;}.cls-70{letter-spacing:-0.01em;}.cls-71{letter-spacing:0em;}.cls-72{letter-spacing:-0.02em;}.cls-73{letter-spacing:0em;}</style><radialGradient id="Degradado_sin_nombre_19" cx="13.29" cy="658.1" r="6.21" gradientUnits="userSpaceOnUse"><stop offset="0" stop-color="#fff"/><stop offset="1" stop-color="#cb3c83"/></radialGradient></defs><title>Experience</title><line class="cls-1" x1="13.62" y1="658.1" x2="13.62" y2="42.89"/><circle class="cls-2" cx="13.62" cy="42.89" r="6.21"/><circle class="cls-3" cx="13.62" cy="42.89" r="9.31"/><circle class="cls-4" cx="13.62" cy="42.89" r="12.76"/><circle class="cls-2" cx="13.62" cy="132.33" r="6.21"/><circle class="cls-3" cx="13.62" cy="132.33" r="9.31"/><circle class="cls-4" cx="13.62" cy="132.33" r="12.76"/><text class="cls-5" transform="translate(37.67 13.58) rotate(-0.05)"><tspan class="cls-6">L</tspan><tspan x="9.39" y="0">os A</tspan><tspan class="cls-7" x="43.92" y="0">n</tspan><tspan x="54.83" y="0">des Uni</tspan><tspan class="cls-8" x="115.88" y="0">v</tspan><tspan x="124.78" y="0">e</tspan><tspan class="cls-9" x="134.61" y="0">r</tspan><tspan x="141.2" y="0">si</tspan><tspan class="cls-10" x="153.9" y="0">t</tspan><tspan class="cls-11" x="160.45" y="0">y</tspan></text><text class="cls-12" transform="translate(37.67 132.33)"><tspan class="cls-13">T</tspan><tspan class="cls-14" x="7.38" y="0">e</tspan><tspan class="cls-15" x="15.58" y="0">a</tspan><tspan class="cls-16" x="23.84" y="0">c</tspan><tspan x="31.61" y="0">hi</tspan><tspan class="cls-17" x="44.76" y="0">n</tspan><tspan x="54.07" y="0">g </tspan><tspan class="cls-16" x="67.16" y="0">A</tspan><tspan x="77.21" y="0">ssistant</tspan></text><circle class="cls-18" cx="13.29" cy="658.1" r="6.21"/><circle class="cls-19" cx="13.29" cy="658.1" r="9.31"/><circle class="cls-20" cx="13.29" cy="658.1" r="12.76"/><text class="cls-21" transform="translate(37.67 153.77) rotate(-0.05)">Sof<tspan class="cls-22" x="22.13" y="0">t</tspan><tspan class="cls-23" x="27.68" y="0">w</tspan><tspan x="39.76" y="0">a</tspan><tspan class="cls-24" x="48.02" y="0">r</tspan><tspan x="53.45" y="0">e D</tspan><tspan class="cls-22" x="77.14" y="0">e</tspan><tspan class="cls-25" x="85.46" y="0">v</tspan><tspan x="92.83" y="0">elop</tspan><tspan class="cls-26" x="123.32" y="0">m</tspan><tspan x="138.21" y="0">ent in </tspan><tspan class="cls-27" x="182.4" y="0">T</tspan><tspan class="cls-28" x="189.67" y="0">e</tspan><tspan x="197.92" y="0">ams </tspan></text><text class="cls-29" transform="translate(37.66 87.36)"><tspan class="cls-30">A</tspan><tspan x="8.79" y="0">ugust </tspan><tspan class="cls-31" x="47.72" y="0">2</tspan><tspan class="cls-32" x="54.61" y="0">0</tspan><tspan class="cls-33" x="62.56" y="0">17 - M</tspan><tspan class="cls-34" x="96.84" y="0">a</tspan><tspan class="cls-33" x="103.95" y="0">y </tspan><tspan class="cls-31" x="114.11" y="0">2</tspan><tspan class="cls-32" x="121" y="0">0</tspan><tspan x="128.95" y="0">18</tspan></text><text class="cls-12" transform="translate(37.67 45.28)"><tspan class="cls-13">T</tspan><tspan class="cls-14" x="7.38" y="0">e</tspan><tspan class="cls-15" x="15.58" y="0">a</tspan><tspan class="cls-16" x="23.84" y="0">c</tspan><tspan x="31.61" y="0">hi</tspan><tspan class="cls-17" x="44.76" y="0">n</tspan><tspan x="54.07" y="0">g </tspan><tspan class="cls-16" x="67.16" y="0">A</tspan><tspan x="77.21" y="0">ssistant</tspan></text><text class="cls-21" transform="translate(37.67 66.72) rotate(-0.05)">Int<tspan class="cls-35" x="19.39" y="0">r</tspan><tspan class="cls-36" x="24.82" y="0">odu</tspan><tspan class="cls-37" x="52.51" y="0">c</tspan><tspan x="60.48" y="0">tion </tspan><tspan class="cls-38" x="91.85" y="0">t</tspan><tspan x="97.27" y="0">o </tspan><tspan class="cls-39" x="109.72" y="0">S</tspan><tspan class="cls-40" x="118.19" y="0">y</tspan><tspan class="cls-41" x="125.69" y="0">s</tspan><tspan class="cls-38" x="132.54" y="0">t</tspan><tspan x="137.95" y="0">ems E</tspan><tspan class="cls-26" x="181.14" y="0">n</tspan><tspan x="190.65" y="0">gi</tspan><tspan class="cls-26" x="204.02" y="0">n</tspan><tspan x="213.52" y="0">ee</tspan><tspan class="cls-42" x="230.44" y="0">r</tspan><tspan x="235.94" y="0">i</tspan><tspan class="cls-26" x="239.7" y="0">n</tspan><tspan class="cls-41" x="249.21" y="0">g</tspan></text><text class="cls-29" transform="translate(37.67 174.9)">Janua<tspan class="cls-43" x="36.97" y="0">r</tspan><tspan x="42.15" y="0">y </tspan><tspan class="cls-31" x="52.31" y="0">2</tspan><tspan class="cls-32" x="59.2" y="0">0</tspan><tspan x="67.15" y="0">19 - M</tspan><tspan class="cls-30" x="101.66" y="0">a</tspan><tspan x="108.77" y="0">y </tspan><tspan class="cls-44" x="118.93" y="0">2</tspan><tspan class="cls-45" x="125.82" y="0">0</tspan><tspan x="133.77" y="0">19</tspan></text><circle class="cls-2" cx="14.17" cy="228.97" r="6.21"/><circle class="cls-3" cx="14.17" cy="228.97" r="9.31"/><circle class="cls-4" cx="14.17" cy="228.97" r="12.76"/><text class="cls-12" transform="translate(38.22 228.97)"><tspan class="cls-13">T</tspan><tspan class="cls-14" x="7.38" y="0">e</tspan><tspan class="cls-15" x="15.58" y="0">a</tspan><tspan class="cls-16" x="23.84" y="0">c</tspan><tspan x="31.61" y="0">hi</tspan><tspan class="cls-17" x="44.76" y="0">n</tspan><tspan x="54.07" y="0">g </tspan><tspan class="cls-16" x="67.16" y="0">A</tspan><tspan x="77.21" y="0">ssistant</tspan></text><text class="cls-21" transform="translate(38.23 250.41) rotate(-0.05)"><tspan class="cls-46">C</tspan><tspan x="10.01" y="0">S B</tspan><tspan class="cls-42" x="32.84" y="0">r</tspan><tspan class="cls-41" x="38.35" y="0">idge - Sum</tspan><tspan class="cls-26" x="115.23" y="0">m</tspan><tspan class="cls-41" x="130.11" y="0">er camp</tspan></text><text class="cls-29" transform="translate(38.23 271.54)">Ju<tspan class="cls-47" x="14.38" y="0">n</tspan><tspan x="22.59" y="0">e </tspan><tspan class="cls-31" x="33.27" y="0">2</tspan><tspan class="cls-32" x="40.16" y="0">0</tspan><tspan class="cls-33" x="48.11" y="0">19 - July </tspan><tspan class="cls-44" x="99.24" y="0">2</tspan><tspan class="cls-45" x="106.13" y="0">0</tspan><tspan x="114.08" y="0">19</tspan></text><text class="cls-5" transform="translate(37.57 630.28) rotate(-0.05)">Data<tspan class="cls-48" x="38.94" y="0">f</tspan><tspan class="cls-10" x="46.04" y="0">r</tspan><tspan class="cls-49" x="52.52" y="0">e</tspan><tspan x="62.11" y="0">a</tspan><tspan class="cls-50" x="71.71" y="0">k</tspan><tspan class="cls-51" x="81.49" y="0">s</tspan></text><text class="cls-12" transform="translate(38.14 661.1)">S<tspan class="cls-17" x="8.49" y="0">h</tspan><tspan x="17.8" y="0">opi</tspan><tspan class="cls-52" x="39.67" y="0">f</tspan><tspan x="44.79" y="0">y </tspan><tspan class="cls-53" x="56.31" y="0">E</tspan><tspan class="cls-15" x="65.09" y="0">-</tspan><tspan class="cls-53" x="70.35" y="0">C</tspan><tspan class="cls-54" x="79.89" y="0">om</tspan><tspan class="cls-17" x="102.81" y="0">m</tspan><tspan x="117.09" y="0">e</tspan><tspan class="cls-55" x="125.49" y="0">r</tspan><tspan class="cls-56" x="131.02" y="0">c</tspan><tspan x="138.76" y="0">e</tspan></text><text class="cls-21" transform="translate(38.14 682.54) rotate(-0.05)"><tspan class="cls-57">E</tspan><tspan class="cls-58" x="9.09" y="0">-</tspan><tspan class="cls-59" x="14.55" y="0">C</tspan><tspan x="24.29" y="0">om</tspan><tspan class="cls-26" x="47.92" y="0">m</tspan><tspan class="cls-41" x="62.8" y="0">e</tspan><tspan class="cls-24" x="71.26" y="0">r</tspan><tspan class="cls-60" x="76.69" y="0">c</tspan><tspan x="84.45" y="0">e </tspan><tspan class="cls-61" x="96.57" y="0">f</tspan><tspan class="cls-36" x="101.19" y="0">or </tspan><tspan class="cls-35" x="119.25" y="0">P</tspan><tspan x="129.12" y="0">eli</tspan><tspan class="cls-39" x="145.11" y="0">k</tspan><tspan x="153.38" y="0">an®</tspan></text><text class="cls-29" transform="translate(38.14 703.68)">July <tspan class="cls-31" x="27.98" y="0">2</tspan><tspan class="cls-32" x="34.87" y="0">0</tspan><tspan x="42.82" y="0">19 - Not </tspan><tspan class="cls-62" x="91.61" y="0">y</tspan><tspan class="cls-63" x="98.31" y="0">et</tspan></text><circle class="cls-2" cx="13.53" cy="372.67" r="6.21"/><circle class="cls-3" cx="13.53" cy="372.67" r="9.31"/><circle class="cls-4" cx="13.53" cy="372.67" r="12.76"/><text class="cls-5" transform="translate(37.58 343.36) rotate(-0.05)">Animal <tspan class="cls-64" x="62.4" y="0">T</tspan><tspan x="71.04" y="0">e</tspan><tspan class="cls-65" x="80.87" y="0">c</tspan><tspan x="89.98" y="0">h</tspan><tspan class="cls-7" x="100.8" y="0">n</tspan><tspan x="111.71" y="0">ologies</tspan></text><text class="cls-29" transform="translate(37.57 417.13)">Ju<tspan class="cls-47" x="14.38" y="0">n</tspan><tspan x="22.59" y="0">e </tspan><tspan class="cls-31" x="33.27" y="0">2</tspan><tspan class="cls-32" x="40.16" y="0">0</tspan><tspan class="cls-33" x="48.11" y="0">17 - July </tspan><tspan class="cls-31" x="99.01" y="0">2</tspan><tspan class="cls-32" x="105.9" y="0">0</tspan><tspan x="113.85" y="0">17</tspan></text><text class="cls-12" transform="translate(37.58 375.06)">Scrum mas<tspan class="cls-66" x="78.49" y="0">t</tspan><tspan x="83.97" y="0">er</tspan></text><text class="cls-21" transform="translate(37.58 396.49) rotate(-0.05)">S<tspan class="cls-42" x="8.61" y="0">c</tspan><tspan class="cls-26" x="16.38" y="0">h</tspan><tspan class="cls-41" x="25.89" y="0">edule a</tspan><tspan class="cls-26" x="77.4" y="0">n</tspan><tspan x="86.91" y="0">d </tspan><tspan class="cls-25" x="100.07" y="0">w</tspan><tspan x="112.17" y="0">o</tspan><tspan class="cls-42" x="120.94" y="0">r</tspan><tspan x="126.45" y="0">k man</tspan><tspan class="cls-67" x="171.12" y="0">a</tspan><tspan x="179.41" y="0">ger</tspan></text><circle class="cls-2" cx="14.09" cy="507.12" r="6.21"/><circle class="cls-3" cx="14.09" cy="507.12" r="9.31"/><circle class="cls-4" cx="14.09" cy="507.12" r="12.76"/><text class="cls-5" transform="translate(38.14 477.81) rotate(-0.05)"><tspan class="cls-8">F</tspan><tspan class="cls-51" x="9.83" y="0">ull </tspan><tspan class="cls-68" x="34.09" y="0">E</tspan><tspan class="cls-51" x="44.52" y="0">xpe</tspan><tspan class="cls-65" x="74.25" y="0">r</tspan><tspan x="80.81" y="0">ie</tspan><tspan class="cls-7" x="95.21" y="0">n</tspan><tspan class="cls-69" x="106.11" y="0">c</tspan><tspan x="115.17" y="0">e</tspan></text><text class="cls-29" transform="translate(38.13 551.59)">De<tspan class="cls-70" x="17.23" y="0">c</tspan><tspan x="24.05" y="0">ember </tspan><tspan class="cls-31" x="67.83" y="0">2</tspan><tspan class="cls-32" x="74.72" y="0">0</tspan><tspan x="82.67" y="0">17 - Janua</tspan><tspan class="cls-43" x="142.57" y="0">r</tspan><tspan x="147.74" y="0">y </tspan><tspan class="cls-44" x="157.91" y="0">2</tspan><tspan class="cls-45" x="164.8" y="0">0</tspan><tspan x="172.75" y="0">17</tspan></text><text class="cls-12" transform="translate(38.14 509.51)">App <tspan class="cls-56" x="32.35" y="0">f</tspan><tspan x="37.23" y="0">or Ge</tspan><tspan class="cls-17" x="74.14" y="0">n</tspan><tspan class="cls-71" x="83.46" y="0">e</tspan><tspan class="cls-56" x="91.85" y="0">r</tspan><tspan x="97.41" y="0">al Mo</tspan><tspan class="cls-72" x="134.83" y="0">t</tspan><tspan x="140.31" y="0">o</tspan><tspan class="cls-73" x="149.01" y="0">r</tspan><tspan x="154.64" y="0">s</tspan></text><text class="cls-21" transform="translate(38.14 530.94) rotate(-0.05)">Desig<tspan class="cls-26" x="40.24" y="0">n</tspan><tspan x="49.74" y="0">er a</tspan><tspan class="cls-26" x="75.74" y="0">n</tspan><tspan x="85.24" y="0">d d</tspan><tspan class="cls-22" x="107.9" y="0">e</tspan><tspan class="cls-25" x="116.21" y="0">v</tspan><tspan class="cls-41" x="123.59" y="0">eloper</tspan></text></svg>