<svg xmlns="http://www.w3.org/2000/svg" xmlns:xlink="http://www.w3.org/1999/xlink" viewBox="0 0 1440 1449.96"><defs><style>.cls-1,.cls-22{opacity:0.8;}.cls-1,.cls-16,.cls-22{mix-blend-mode:hard-light;}.cls-2,.cls-24{opacity:0.4;}.cls-2{mix-blend-mode:multiply;fill:url(#Degradado_sin_nombre_183);}.cls-3{isolation:isolate;}.cls-15,.cls-20,.cls-23,.cls-24,.cls-4{mix-blend-mode:overlay;}.cls-4{fill:url(#Degradado_sin_nombre_5);}.cls-20,.cls-5,.cls-8,.cls-9{opacity:0.2;}.cls-5{fill:url(#Degradado_sin_nombre_77);}.cls-6{fill:url(#Degradado_sin_nombre_51);}.cls-7{fill:url(#Degradado_sin_nombre_132);}.cls-8{fill:url(#Degradado_sin_nombre_77-2);}.cls-9{fill:url(#Degradado_sin_nombre_77-3);}.cls-10{fill:url(#Degradado_sin_nombre_77-4);}.cls-11,.cls-12,.cls-23{opacity:0.15;}.cls-11{fill:url(#Degradado_sin_nombre_18);}.cls-12{fill:url(#Degradado_sin_nombre_18-2);}.cls-13{fill:url(#Degradado_sin_nombre_78);}.cls-14,.cls-19,.cls-21,.cls-33,.cls-34,.cls-35,.cls-36,.cls-37,.cls-38,.cls-39,.cls-40,.cls-41,.cls-42,.cls-43,.cls-44,.cls-45,.cls-46,.cls-47,.cls-48,.cls-49,.cls-50,.cls-51,.cls-52,.cls-53,.cls-54,.cls-55,.cls-56,.cls-57,.cls-58,.cls-59,.cls-60,.cls-61,.cls-62,.cls-63,.cls-64,.cls-65,.cls-66,.cls-67,.cls-68,.cls-69,.cls-70,.cls-71,.cls-72,.cls-73,.cls-74{mix-blend-mode:screen;}.cls-14{fill:url(#Degradado_sin_nombre_166);}.cls-15{fill:#8cf4ff;}.cls-16{opacity:0.62;fill:url(#Degradado_sin_nombre_94);}.cls-17{fill:url(#Degradado_sin_nombre_136);}.cls-18{fill:url(#Degradado_sin_nombre_47);}.cls-19{fill:url(#Degradado_sin_nombre_22);}.cls-20{fill:#fff;}.cls-21{fill:url(#Degradado_sin_nombre_166-2);}.cls-22{fill:url(#Degradado_sin_nombre_157);}.cls-23{fill:#ffafcb;}.cls-24{fill:url(#Degradado_sin_nombre_164);}.cls-25{mask:url(#mask);}.cls-26,.cls-31,.cls-75,.cls-76,.cls-77{mix-blend-mode:color-dodge;}.cls-26{fill:url(#Degradado_sin_nombre_44);}.cls-27{fill:url(#Degradado_sin_nombre_84);}.cls-28{mask:url(#mask-3);}.cls-29{fill:url(#Degradado_sin_nombre_178);}.cls-30{fill:none;stroke:#fff;stroke-linecap:round;stroke-miterlimit:10;stroke-width:15px;opacity:0.85;}.cls-31{fill:url(#Degradado_sin_nombre_184);}.cls-32{opacity:0.25;}.cls-33{fill:url(#Degradado_sin_nombre_184-2);}.cls-34{fill:url(#Degradado_sin_nombre_184-3);}.cls-35{fill:url(#Degradado_sin_nombre_184-4);}.cls-36{fill:url(#Degradado_sin_nombre_184-5);}.cls-37{fill:url(#Degradado_sin_nombre_184-6);}.cls-38{fill:url(#Degradado_sin_nombre_184-7);}.cls-39{fill:url(#Degradado_sin_nombre_184-8);}.cls-40{fill:url(#Degradado_sin_nombre_184-9);}.cls-41{fill:url(#Degradado_sin_nombre_184-10);}.cls-42{fill:url(#Degradado_sin_nombre_184-11);}.cls-43{fill:url(#Degradado_sin_nombre_184-12);}.cls-44{fill:url(#Degradado_sin_nombre_184-13);}.cls-45{fill:url(#Degradado_sin_nombre_184-14);}.cls-46{fill:url(#Degradado_sin_nombre_184-15);}.cls-47{fill:url(#Degradado_sin_nombre_184-16);}.cls-48{fill:url(#Degradado_sin_nombre_184-17);}.cls-49{fill:url(#Degradado_sin_nombre_184-18);}.cls-50{fill:url(#Degradado_sin_nombre_184-19);}.cls-51{fill:url(#Degradado_sin_nombre_184-20);}.cls-52{fill:url(#Degradado_sin_nombre_184-21);}.cls-53{fill:url(#Degradado_sin_nombre_184-22);}.cls-54{fill:url(#Degradado_sin_nombre_184-23);}.cls-55{fill:url(#Degradado_sin_nombre_184-24);}.cls-56{fill:url(#Degradado_sin_nombre_184-25);}.cls-57{fill:url(#Degradado_sin_nombre_184-26);}.cls-58{fill:url(#Degradado_sin_nombre_184-27);}.cls-59{fill:url(#Degradado_sin_nombre_184-28);}.cls-60{fill:url(#Degradado_sin_nombre_184-29);}.cls-61{fill:url(#Degradado_sin_nombre_184-30);}.cls-62{fill:url(#Degradado_sin_nombre_184-31);}.cls-63{fill:url(#Degradado_sin_nombre_184-32);}.cls-64{fill:url(#Degradado_sin_nombre_184-33);}.cls-65{fill:url(#Degradado_sin_nombre_184-34);}.cls-66{fill:url(#Degradado_sin_nombre_184-35);}.cls-67{fill:url(#Degradado_sin_nombre_184-36);}.cls-68{fill:url(#Degradado_sin_nombre_184-37);}.cls-69{fill:url(#Degradado_sin_nombre_184-38);}.cls-70{fill:url(#Degradado_sin_nombre_184-39);}.cls-71{fill:url(#Degradado_sin_nombre_184-40);}.cls-72{fill:url(#Degradado_sin_nombre_184-41);}.cls-73{fill:url(#Degradado_sin_nombre_184-42);}.cls-74{fill:url(#Degradado_sin_nombre_184-43);}.cls-75{fill:url(#Degradado_sin_nombre_184-44);}.cls-76{fill:url(#Degradado_sin_nombre_184-45);}.cls-77{fill:url(#Degradado_sin_nombre_184-46);}.cls-78{filter:url(#luminosity-noclip);}</style><linearGradient id="Degradado_sin_nombre_183" x1="1374.11" y1="978.55" x2="1185.89" y2="461.45" gradientUnits="userSpaceOnUse"><stop offset="0" stop-color="#fff"/><stop offset="0.03" stop-color="#fdfff5" stop-opacity="0.9"/><stop offset="0.09" stop-color="#faffde" stop-opacity="0.69"/><stop offset="0.15" stop-color="#f7ffca" stop-opacity="0.51"/><stop offset="0.21" stop-color="#f4ffba" stop-opacity="0.35"/><stop offset="0.28" stop-color="#f2ffac" stop-opacity="0.22"/><stop offset="0.35" stop-color="#f0ffa1" stop-opacity="0.13"/><stop offset="0.41" stop-color="#efff9a" stop-opacity="0.06"/><stop offset="0.49" stop-color="#eeff95" stop-opacity="0.01"/><stop offset="0.57" stop-color="#eeff94" stop-opacity="0"/></linearGradient><radialGradient id="Degradado_sin_nombre_5" cx="720" cy="724.98" r="722.49" gradientUnits="userSpaceOnUse"><stop offset="0" stop-color="#fff"/><stop offset="1" stop-color="#fff" stop-opacity="0"/></radialGradient><linearGradient id="Degradado_sin_nombre_77" x1="672.84" y1="530.03" x2="672.84" y2="378.03" gradientUnits="userSpaceOnUse"><stop offset="0" stop-color="#5fbaa0"/><stop offset="1" stop-color="#fdfbc5"/></linearGradient><linearGradient id="Degradado_sin_nombre_51" x1="445.74" y1="791.59" x2="449.71" y2="784.71" gradientUnits="userSpaceOnUse"><stop offset="0" stop-color="#4268db"/><stop offset="1" stop-color="#8cf4ff"/></linearGradient><linearGradient id="Degradado_sin_nombre_132" x1="1132.18" y1="808.67" x2="1130.46" y2="742.76" gradientUnits="userSpaceOnUse"><stop offset="0" stop-color="#4268db"/><stop offset="1" stop-color="#8cf4ff"/></linearGradient><linearGradient id="Degradado_sin_nombre_77-2" x1="672.84" y1="518.03" x2="672.84" y2="390.03" xlink:href="#Degradado_sin_nombre_77"/><linearGradient id="Degradado_sin_nombre_77-3" x1="672.84" y1="506.03" x2="672.84" y2="402.03" xlink:href="#Degradado_sin_nombre_77"/><linearGradient id="Degradado_sin_nombre_77-4" x1="112.84" y1="494.03" x2="112.84" y2="414.03" xlink:href="#Degradado_sin_nombre_77"/><linearGradient id="Degradado_sin_nombre_18" x1="1724.96" y1="1139.01" x2="1724.96" y2="1041.01" gradientUnits="userSpaceOnUse"><stop offset="0" stop-color="#cd4557"/><stop offset="1" stop-color="#e3b019"/></linearGradient><linearGradient id="Degradado_sin_nombre_18-2" x1="1724.96" y1="1127.01" x2="1724.96" y2="1053.01" xlink:href="#Degradado_sin_nombre_18"/><linearGradient id="Degradado_sin_nombre_78" x1="1164.96" y1="1115.01" x2="1164.96" y2="1065.01" gradientUnits="userSpaceOnUse"><stop offset="0" stop-color="#cd4557"/><stop offset="1" stop-color="#eed077"/></linearGradient><linearGradient id="Degradado_sin_nombre_166" x1="1155.59" y1="444.73" x2="1155.59" y2="404.73" gradientUnits="userSpaceOnUse"><stop offset="0" stop-color="#c838e7"/><stop offset="1" stop-color="#1f2ad5" stop-opacity="0.1"/></linearGradient><linearGradient id="Degradado_sin_nombre_94" x1="925.06" y1="925.06" x2="514.94" y2="514.94" gradientUnits="userSpaceOnUse"><stop offset="0" stop-color="#ffafcb" stop-opacity="0"/><stop offset="0.11" stop-color="#ec90b4" stop-opacity="0.18"/><stop offset="0.31" stop-color="#cc5d8e" stop-opacity="0.47"/><stop offset="0.5" stop-color="#b33570" stop-opacity="0.7"/><stop offset="0.69" stop-color="#a1185b" stop-opacity="0.87"/><stop offset="0.86" stop-color="#97074e" stop-opacity="0.97"/><stop offset="1" stop-color="#93014a"/></linearGradient><linearGradient id="Degradado_sin_nombre_136" x1="1292.29" y1="875.12" x2="1284.12" y2="758.31" gradientUnits="userSpaceOnUse"><stop offset="0.13" stop-color="#4268db"/><stop offset="1" stop-color="#8cf4ff"/></linearGradient><linearGradient id="Degradado_sin_nombre_47" x1="1306.6" y1="993.75" x2="1287.99" y2="816.61" gradientUnits="userSpaceOnUse"><stop offset="0.44" stop-color="#de009f"/><stop offset="1" stop-color="#e1deff"/></linearGradient><linearGradient id="Degradado_sin_nombre_22" x1="1031.88" y1="1029.55" x2="872.78" y2="870.45" gradientUnits="userSpaceOnUse"><stop offset="0" stop-color="#1f2ad5"/><stop offset="1" stop-color="#c838e7"/></linearGradient><linearGradient id="Degradado_sin_nombre_166-2" x1="280.17" y1="1010" x2="280.17" y2="970" xlink:href="#Degradado_sin_nombre_166"/><linearGradient id="Degradado_sin_nombre_157" x1="1374.11" y1="978.55" x2="1185.89" y2="461.45" gradientUnits="userSpaceOnUse"><stop offset="0" stop-color="#dfff3b"/><stop offset="0.03" stop-color="#e0ff44" stop-opacity="0.9"/><stop offset="0.09" stop-color="#e4ff56" stop-opacity="0.69"/><stop offset="0.15" stop-color="#e6ff67" stop-opacity="0.51"/><stop offset="0.21" stop-color="#e9ff75" stop-opacity="0.35"/><stop offset="0.28" stop-color="#ebff80" stop-opacity="0.22"/><stop offset="0.34" stop-color="#ecff89" stop-opacity="0.13"/><stop offset="0.41" stop-color="#edff8f" stop-opacity="0.06"/><stop offset="0.49" stop-color="#eeff93" stop-opacity="0.01"/><stop offset="0.57" stop-color="#eeff94" stop-opacity="0"/></linearGradient><linearGradient id="Degradado_sin_nombre_164" x1="1485.06" y1="925.06" x2="1074.94" y2="514.94" gradientUnits="userSpaceOnUse"><stop offset="0" stop-color="#fff" stop-opacity="0"/><stop offset="1" stop-color="#fff"/></linearGradient><filter id="luminosity-noclip" x="844.41" y="403.15" width="871.19" height="633.7" filterUnits="userSpaceOnUse" color-interpolation-filters="sRGB"><feFlood flood-color="#fff" result="bg"/><feBlend in="SourceGraphic" in2="bg"/></filter><mask id="mask" x="284.41" y="403.15" width="871.19" height="633.7" maskUnits="userSpaceOnUse"><g class="cls-78"><g transform="translate(-560)"><path class="cls-1" d="M1527.19,568.31c-51-83-142.64-138.31-247.19-138.31-160.16,0-290,129.84-290,290a288.65,288.65,0,0,0,39.08,145.46Z"/></g></g></mask><linearGradient id="Degradado_sin_nombre_44" x1="1362.3" y1="818.08" x2="1197.7" y2="621.92" gradientUnits="userSpaceOnUse"><stop offset="0" stop-color="#cb5180"/><stop offset="0.11" stop-color="#cc5684" stop-opacity="0.97"/><stop offset="0.25" stop-color="#d1648e" stop-opacity="0.89"/><stop offset="0.42" stop-color="#d87b9f" stop-opacity="0.76"/><stop offset="0.59" stop-color="#e19cb7" stop-opacity="0.57"/><stop offset="0.78" stop-color="#eec6d5" stop-opacity="0.33"/><stop offset="0.97" stop-color="#fdf8fa" stop-opacity="0.04"/><stop offset="1" stop-color="#fff" stop-opacity="0"/></linearGradient><linearGradient id="Degradado_sin_nombre_84" x1="1362.3" y1="818.08" x2="1197.7" y2="621.92" gradientUnits="userSpaceOnUse"><stop offset="0" stop-color="#db87a7"/><stop offset="0.82" stop-color="#fbf5e1"/></linearGradient><mask id="mask-3" x="329.44" y="445" width="871.19" height="636.09" maskUnits="userSpaceOnUse"><g transform="translate(-560)"><path class="cls-2" d="M1280,995a275,275,0,1,1,194.45-80.55A273.2,273.2,0,0,1,1280,995Z"/></g></mask><linearGradient id="Degradado_sin_nombre_178" x1="1407.33" y1="862.32" x2="1242.73" y2="666.16" gradientUnits="userSpaceOnUse"><stop offset="0" stop-color="#cb5180"/><stop offset="0.41" stop-color="#64283f"/><stop offset="0.82"/></linearGradient><linearGradient id="Degradado_sin_nombre_184" x1="641" y1="350.72" x2="641" y2="330.72" gradientUnits="userSpaceOnUse"><stop offset="0" stop-color="#5fbaa0"/><stop offset="1" stop-color="#f6ee1e" stop-opacity="0"/></linearGradient><linearGradient id="Degradado_sin_nombre_184-2" x1="553.41" y1="774.24" x2="553.41" y2="754.24" xlink:href="#Degradado_sin_nombre_184"/><linearGradient id="Degradado_sin_nombre_184-3" x1="593.46" y1="822.24" x2="593.46" y2="802.24" xlink:href="#Degradado_sin_nombre_184"/><linearGradient id="Degradado_sin_nombre_184-4" x1="700" y1="826.01" x2="700" y2="806.01" xlink:href="#Degradado_sin_nombre_184"/><linearGradient id="Degradado_sin_nombre_184-5" x1="772.36" y1="764.24" x2="772.36" y2="744.24" xlink:href="#Degradado_sin_nombre_184"/><linearGradient id="Degradado_sin_nombre_184-6" x1="921.54" y1="784.24" x2="921.54" y2="764.24" xlink:href="#Degradado_sin_nombre_184"/><linearGradient id="Degradado_sin_nombre_184-7" x1="854.07" y1="843.19" x2="854.07" y2="823.19" xlink:href="#Degradado_sin_nombre_184"/><linearGradient id="Degradado_sin_nombre_184-8" x1="805.13" y1="899.1" x2="805.13" y2="879.1" xlink:href="#Degradado_sin_nombre_184"/><linearGradient id="Degradado_sin_nombre_184-9" x1="849.41" y1="957.32" x2="849.41" y2="937.32" xlink:href="#Degradado_sin_nombre_184"/><linearGradient id="Degradado_sin_nombre_184-10" x1="893.05" y1="884.81" x2="893.05" y2="864.81" xlink:href="#Degradado_sin_nombre_184"/><linearGradient id="Degradado_sin_nombre_184-11" x1="935.71" y1="851.17" x2="935.71" y2="831.17" xlink:href="#Degradado_sin_nombre_184"/><linearGradient id="Degradado_sin_nombre_184-12" x1="673.98" y1="937.32" x2="673.98" y2="917.32" xlink:href="#Degradado_sin_nombre_184"/><linearGradient id="Degradado_sin_nombre_184-13" x1="573.46" y1="927.32" x2="573.46" y2="907.32" xlink:href="#Degradado_sin_nombre_184"/><linearGradient id="Degradado_sin_nombre_184-14" x1="583.46" y1="864.64" x2="583.46" y2="844.64" xlink:href="#Degradado_sin_nombre_184"/><linearGradient id="Degradado_sin_nombre_184-15" x1="710" y1="784.24" x2="710" y2="764.24" xlink:href="#Degradado_sin_nombre_184"/><linearGradient id="Degradado_sin_nombre_184-16" x1="935.71" y1="639.81" x2="935.71" y2="606.57" xlink:href="#Degradado_sin_nombre_184"/><linearGradient id="Degradado_sin_nombre_184-17" x1="517.11" y1="808.54" x2="517.11" y2="775.29" xlink:href="#Degradado_sin_nombre_184"/><linearGradient id="Degradado_sin_nombre_184-18" x1="499" y1="843.19" x2="499" y2="823.19" xlink:href="#Degradado_sin_nombre_184"/><linearGradient id="Degradado_sin_nombre_184-19" x1="714.22" y1="980" x2="714.22" y2="960" xlink:href="#Degradado_sin_nombre_184"/><linearGradient id="Degradado_sin_nombre_184-20" x1="782.36" y1="967.32" x2="782.36" y2="947.32" xlink:href="#Degradado_sin_nombre_184"/><linearGradient id="Degradado_sin_nombre_184-21" x1="960.38" y1="813.19" x2="960.38" y2="793.19" xlink:href="#Degradado_sin_nombre_184"/><linearGradient id="Degradado_sin_nombre_184-22" x1="839.41" y1="750.31" x2="839.41" y2="730.31" xlink:href="#Degradado_sin_nombre_184"/><linearGradient id="Degradado_sin_nombre_184-23" x1="533.41" y1="899.1" x2="533.41" y2="879.1" xlink:href="#Degradado_sin_nombre_184"/><linearGradient id="Degradado_sin_nombre_184-24" x1="854.25" y1="791.91" x2="854.25" y2="781.59" xlink:href="#Degradado_sin_nombre_184"/><linearGradient id="Degradado_sin_nombre_184-25" x1="598.62" y1="905.25" x2="598.62" y2="894.92" xlink:href="#Degradado_sin_nombre_184"/><linearGradient id="Degradado_sin_nombre_184-26" x1="777.52" y1="869.8" x2="777.52" y2="859.48" xlink:href="#Degradado_sin_nombre_184"/><linearGradient id="Degradado_sin_nombre_184-27" x1="494.16" y1="779.41" x2="494.16" y2="769.08" xlink:href="#Degradado_sin_nombre_184"/><linearGradient id="Degradado_sin_nombre_184-28" x1="810.29" y1="838.35" x2="810.29" y2="828.03" xlink:href="#Degradado_sin_nombre_184"/><linearGradient id="Degradado_sin_nombre_184-29" x1="976.56" y1="784.57" x2="976.56" y2="774.24" xlink:href="#Degradado_sin_nombre_184"/><linearGradient id="Degradado_sin_nombre_184-30" x1="741.72" y1="789.73" x2="741.72" y2="779.41" xlink:href="#Degradado_sin_nombre_184"/><linearGradient id="Degradado_sin_nombre_184-31" x1="839.41" y1="912.49" x2="839.41" y2="902.16" xlink:href="#Degradado_sin_nombre_184"/><linearGradient id="Degradado_sin_nombre_184-32" x1="746.88" y1="942.49" x2="746.88" y2="932.16" xlink:href="#Degradado_sin_nombre_184"/><linearGradient id="Degradado_sin_nombre_184-33" x1="647.45" y1="802.24" x2="647.45" y2="791.91" xlink:href="#Degradado_sin_nombre_184"/><linearGradient id="Degradado_sin_nombre_184-34" x1="732.9" y1="885.51" x2="732.9" y2="875.19" xlink:href="#Degradado_sin_nombre_184"/><linearGradient id="Degradado_sin_nombre_184-35" x1="652.61" y1="900.08" x2="652.61" y2="889.76" xlink:href="#Degradado_sin_nombre_184"/><linearGradient id="Degradado_sin_nombre_184-36" x1="609.01" y1="774.57" x2="609.01" y2="764.24" xlink:href="#Degradado_sin_nombre_184"/><linearGradient id="Degradado_sin_nombre_184-37" x1="657.77" y1="857.4" x2="657.77" y2="847.08" xlink:href="#Degradado_sin_nombre_184"/><linearGradient id="Degradado_sin_nombre_184-38" x1="626.78" y1="838.35" x2="626.78" y2="828.03" xlink:href="#Degradado_sin_nombre_184"/><linearGradient id="Degradado_sin_nombre_184-39" x1="626.78" y1="955.16" x2="626.78" y2="944.84" xlink:href="#Degradado_sin_nombre_184"/><linearGradient id="Degradado_sin_nombre_184-40" x1="528.57" y1="862.57" x2="528.57" y2="852.24" xlink:href="#Degradado_sin_nombre_184"/><linearGradient id="Degradado_sin_nombre_184-41" x1="852.34" y1="841.17" x2="852.34" y2="830.85" xlink:href="#Degradado_sin_nombre_184"/><linearGradient id="Degradado_sin_nombre_184-42" x1="789.89" y1="808.71" x2="789.89" y2="798.39" xlink:href="#Degradado_sin_nombre_184"/><linearGradient id="Degradado_sin_nombre_184-43" x1="631.94" y1="885.51" x2="631.94" y2="875.19" xlink:href="#Degradado_sin_nombre_184"/><linearGradient id="Degradado_sin_nombre_184-44" x1="793.1" y1="1137.01" x2="793.1" y2="1117.01" xlink:href="#Degradado_sin_nombre_184"/><linearGradient id="Degradado_sin_nombre_184-45" x1="543.41" y1="656.43" x2="543.41" y2="636.43" xlink:href="#Degradado_sin_nombre_184"/><linearGradient id="Degradado_sin_nombre_184-46" x1="829.41" y1="623.19" x2="829.41" y2="603.19" xlink:href="#Degradado_sin_nombre_184"/></defs><title>GlassPlanet copia</title><g class="cls-3"><g id="Capa_1" data-name="Capa 1"><ellipse class="cls-4" cx="720" cy="724.98" rx="720" ry="724.98"/></g><g id="Artwork"><path id="Planet_glow" data-name="Planet glow" class="cls-5" d="M672.84,530a76,76,0,1,1,76-76A76.09,76.09,0,0,1,672.84,530Z" transform="translate(-560)"/><polygon class="cls-6" points="447.72 788.15 447.72 788.15 447.72 788.15 447.72 788.15"/><path class="cls-7" d="M1014.69,788.18c-.24.26-.47.53-.7.79a543.63,543.63,0,0,0,70.8,5.33l4.94,0h2.86l2.8,0c62.87-.91,106.16-16.92,153.22-33.17-38-3.79-78.44-27-119.59-26.93-51.14.07-88,24.32-114.24,53.91h0Z" transform="translate(-560)"/><path class="cls-8" d="M672.84,518a64,64,0,1,1,64-64A64.07,64.07,0,0,1,672.84,518Z" transform="translate(-560)"/><path class="cls-9" d="M672.84,506a52,52,0,1,1,52-52A52.06,52.06,0,0,1,672.84,506Z" transform="translate(-560)"/><circle class="cls-10" cx="112.84" cy="454.03" r="40"/><path id="Planet_glow-2" data-name="Planet glow" class="cls-11" d="M1725,1139a49,49,0,1,1,49-49A49.06,49.06,0,0,1,1725,1139Z" transform="translate(-560)"/><path id="Planet_glow-3" data-name="Planet glow" class="cls-12" d="M1725,1127a37,37,0,1,1,37-37A37,37,0,0,1,1725,1127Z" transform="translate(-560)"/><circle class="cls-13" cx="1164.96" cy="1090.01" r="25"/><circle id="Planet" class="cls-14" cx="1155.59" cy="424.73" r="20"/><path class="cls-15" d="M736,650.07l-1.69-14.66a.84.84,0,0,0-.74-.74L718.91,633a.84.84,0,0,1,0-1.67l14.66-1.69a.84.84,0,0,0,.74-.74L736,614.23a.84.84,0,0,1,1.67,0l1.69,14.66a.84.84,0,0,0,.74.74l14.66,1.69a.84.84,0,0,1,0,1.67l-14.66,1.69a.84.84,0,0,0-.74.74l-1.69,14.66A.84.84,0,0,1,736,650.07Z" transform="translate(-560)"/><path class="cls-15" d="M1820.09,885.85l-10.83-14.59a1,1,0,0,0-1.24-.33l-16.67,7.22a1,1,0,0,1-1-1.78l14.59-10.83a1,1,0,0,0,.33-1.24L1798,847.62a1,1,0,0,1,1.78-1l10.83,14.59a1,1,0,0,0,1.24.33l16.67-7.22a1,1,0,0,1,1,1.78L1815,866.91a1,1,0,0,0-.33,1.24l7.22,16.67A1,1,0,0,1,1820.09,885.85Z" transform="translate(-560)"/><path class="cls-15" d="M900.49,466.37a7.5,7.5,0,1,1-10.61-10.61c2.93-2.93,53.06-42.45,53.06-42.45S903.41,463.44,900.49,466.37Z" transform="translate(-560)"/><path class="cls-15" d="M947.55,1136.81a7.5,7.5,0,0,1-10.61-10.61c2.93-2.93,53.06-42.45,53.06-42.45S950.48,1133.89,947.55,1136.81Z" transform="translate(-560)"/><path class="cls-15" d="M767.6,865.45a3.39,3.39,0,1,1-4.8-4.8c1.33-1.33,24-19.21,24-19.21S768.93,864.12,767.6,865.45Z" transform="translate(-560)"/><path class="cls-15" d="M1656.75,701.18a3.39,3.39,0,0,1-4.8-4.8c1.33-1.33,24-19.21,24-19.21S1658.08,699.86,1656.75,701.18Z" transform="translate(-560)"/><circle id="Base" class="cls-16" cx="720" cy="720" r="290"/><path class="cls-17" d="M1478.24,908.72c.54-.55,1-1.1,1.56-1.65,1-1.07,2-2.14,3-3.23.62-.67,1.22-1.35,1.83-2,.88-1,1.76-2,2.63-2.93.65-.74,1.28-1.49,1.92-2.23.8-.94,1.61-1.88,2.4-2.82.66-.79,1.3-1.58,2-2.38s1.5-1.83,2.23-2.75,1.32-1.67,2-2.5,1.4-1.8,2.08-2.71,1.31-1.74,1.94-2.61,1.32-1.78,2-2.68,1.29-1.8,1.93-2.71l1.83-2.64c.65-.94,1.28-1.88,1.91-2.83s1.14-1.73,1.71-2.6,1.26-2,1.88-2.93,1.07-1.7,1.6-2.55c.63-1,1.24-2,1.86-3.06.5-.82,1-1.65,1.46-2.47.63-1.07,1.24-2.13,1.85-3.2l1.33-2.38c.62-1.12,1.24-2.24,1.84-3.37.39-.73.78-1.48,1.16-2.21.63-1.2,1.25-2.4,1.86-3.6.33-.65.65-1.31,1-2,.65-1.3,1.28-2.6,1.91-3.91l.7-1.52c.69-1.47,1.38-2.94,2-4.42l.21-.5a269.54,269.54,0,0,0,10.88-28.94l.07-.22q.83-2.71,1.62-5.45c.07-.24.15-.49.22-.74.5-1.74,1-3.48,1.43-5.23.08-.33.17-.66.26-1q.65-2.56,1.26-5.14l.27-1.13c.39-1.69.78-3.39,1.13-5.09.09-.4.18-.8.26-1.2.35-1.7.69-3.4,1-5.11.07-.4.15-.81.22-1.21.32-1.72.62-3.44.9-5.16.07-.39.13-.78.19-1.17q.41-2.62.79-5.25l.15-1.11c.24-1.78.47-3.57.68-5.36,0-.32.07-.65.1-1q.32-2.76.57-5.54c0-.25.05-.51.07-.77q.26-2.88.46-5.77l0-.47q.2-3,.33-6.1c-14.49-3.67-28.43-6.59-41.85-8.89-54-9.25-99.37-8.22-135.53-3.8a431.78,431.78,0,0,0-73.59,15.56c-10.48,3.16-20.46,6.57-30.14,10.09q-5.28,1.92-10.43,3.87c-6.13,2.32-12.15,4.67-18.12,7-47.61,18.73-91.4,37.19-155,38.24l-2.83,0h-2.89c-1.67,0-3.34,0-5,0a483,483,0,0,1-65.63-5.23A275.25,275.25,0,0,0,1278.42,994c73.71-.41,142.94-29,195.1-80.53Q1475.92,911.13,1478.24,908.72Z" transform="translate(-560)"/><path class="cls-18" d="M1085.55,914.45a275.3,275.3,0,0,0,451-95.05c-61.54-18.7-111.66-18.46-149.72-12.93-103.18,15-145.44,72.92-241.21,74.8-36.36.71-70.26-6.86-101.14-19.09A276.89,276.89,0,0,0,1085.55,914.45Z" transform="translate(-560)"/><circle id="Moon" class="cls-19" cx="952.33" cy="950" r="112.5"/><path id="Side_shine" data-name="Side shine" class="cls-20" d="M1474.45,525.55A273.35,273.35,0,0,0,1350.28,454a279.58,279.58,0,0,1,24.17,21.51A275,275,0,0,1,1180,945a276.58,276.58,0,0,1-70.28-9,275,275,0,0,0,364.74-410.42Z" transform="translate(-560)"/><circle id="Planet-2" data-name="Planet" class="cls-21" cx="280.17" cy="990" r="20"/><path class="cls-22" d="M1280,995a275,275,0,1,1,194.45-80.55A273.2,273.2,0,0,1,1280,995Z" transform="translate(-560)"/><path class="cls-23" d="M1280,430c-160.16,0-290,129.84-290,290s129.84,290,290,290,290-129.84,290-290S1440.16,430,1280,430Zm194.45,484.45A275,275,0,1,1,1555,720,273.2,273.2,0,0,1,1474.45,914.45Z" transform="translate(-560)"/><path class="cls-24" d="M1280,1010a290,290,0,1,1,205.06-84.94A288.1,288.1,0,0,1,1280,1010Z" transform="translate(-560)"/><g class="cls-25"><path class="cls-26" d="M1710.05,418.87c-38-54.29-261.37,36.52-498.88,202.83S811.93,966.84,849.95,1021.13s261.37-36.52,498.88-202.83S1748.07,473.16,1710.05,418.87Zm-372.7,383c-223.94,156.8-431.16,247.25-462.84,202s124.18-209,348.12-365.84,431.16-247.25,462.84-202S1561.3,645.11,1337.36,801.92Z" transform="translate(-560)"/></g><g class="cls-25"><path class="cls-27" d="M1710.05,418.87c-38-54.29-261.37,36.52-498.88,202.83S811.93,966.84,849.95,1021.13s261.37-36.52,498.88-202.83S1748.07,473.16,1710.05,418.87Zm-372.7,383c-223.94,156.8-431.16,247.25-462.84,202s124.18-209,348.12-365.84,431.16-247.25,462.84-202S1561.3,645.11,1337.36,801.92Z" transform="translate(-560)"/></g><g class="cls-28"><path class="cls-29" d="M1755.09,463.12c-38-54.29-261.37,36.52-498.88,202.83S857,1011.08,895,1065.37s261.37-36.52,498.88-202.83S1793.1,517.4,1755.09,463.12Zm-372.7,383c-223.94,156.8-431.16,247.25-462.84,202s124.18-209,348.12-365.84,431.16-247.25,462.84-202S1606.33,689.35,1382.39,846.16Z" transform="translate(-560)"/></g><path class="cls-30" d="M1133.46,536.25a233,233,0,0,1,67.54-37.7" transform="translate(-560)"/><path class="cls-30" d="M1133.46,536.25" transform="translate(-560)"/><path class="cls-30" d="M1093,577.62a238.62,238.62,0,0,1,20.84-23.79" transform="translate(-560)"/><circle id="Planet-3" data-name="Planet" class="cls-31" cx="641" cy="340.72" r="10"/><g class="cls-32"><circle id="Planet-4" data-name="Planet" class="cls-33" cx="553.41" cy="764.24" r="10"/><circle id="Planet-5" data-name="Planet" class="cls-34" cx="593.46" cy="812.24" r="10"/><circle id="Planet-6" data-name="Planet" class="cls-35" cx="700" cy="816.01" r="10"/><circle id="Planet-7" data-name="Planet" class="cls-36" cx="772.36" cy="754.24" r="10"/><circle id="Planet-8" data-name="Planet" class="cls-37" cx="921.54" cy="774.24" r="10"/><circle id="Planet-9" data-name="Planet" class="cls-38" cx="854.07" cy="833.19" r="10"/><circle id="Planet-10" data-name="Planet" class="cls-39" cx="805.13" cy="889.1" r="10"/><circle id="Planet-11" data-name="Planet" class="cls-40" cx="849.41" cy="947.32" r="10"/><circle id="Planet-12" data-name="Planet" class="cls-41" cx="893.05" cy="874.81" r="10"/><circle id="Planet-13" data-name="Planet" class="cls-42" cx="935.71" cy="841.17" r="10"/><circle id="Planet-14" data-name="Planet" class="cls-43" cx="673.98" cy="927.32" r="10"/><circle id="Planet-15" data-name="Planet" class="cls-44" cx="573.46" cy="917.32" r="10"/><circle id="Planet-16" data-name="Planet" class="cls-45" cx="583.46" cy="854.64" r="10"/><circle id="Planet-17" data-name="Planet" class="cls-46" cx="710" cy="774.24" r="10"/><circle id="Planet-18" data-name="Planet" class="cls-47" cx="935.71" cy="623.19" r="16.62"/><circle id="Planet-19" data-name="Planet" class="cls-48" cx="517.11" cy="791.91" r="16.62"/><circle id="Planet-20" data-name="Planet" class="cls-49" cx="499" cy="833.19" r="10"/><circle id="Planet-21" data-name="Planet" class="cls-50" cx="714.22" cy="970" r="10"/><circle id="Planet-22" data-name="Planet" class="cls-51" cx="782.36" cy="957.32" r="10"/><circle id="Planet-23" data-name="Planet" class="cls-52" cx="960.38" cy="803.19" r="10"/><circle id="Planet-24" data-name="Planet" class="cls-53" cx="839.41" cy="740.31" r="10"/><circle id="Planet-25" data-name="Planet" class="cls-54" cx="533.41" cy="889.1" r="10"/><circle id="Planet-26" data-name="Planet" class="cls-55" cx="854.25" cy="786.75" r="5.16"/><circle id="Planet-27" data-name="Planet" class="cls-56" cx="598.62" cy="900.08" r="5.16"/><circle id="Planet-28" data-name="Planet" class="cls-57" cx="777.52" cy="864.64" r="5.16"/><circle id="Planet-29" data-name="Planet" class="cls-58" cx="494.16" cy="774.24" r="5.16"/><circle id="Planet-30" data-name="Planet" class="cls-59" cx="810.29" cy="833.19" r="5.16"/><circle id="Planet-31" data-name="Planet" class="cls-60" cx="976.56" cy="779.41" r="5.16"/><circle id="Planet-32" data-name="Planet" class="cls-61" cx="741.72" cy="784.57" r="5.16"/><circle id="Planet-33" data-name="Planet" class="cls-62" cx="839.41" cy="907.32" r="5.16"/><circle id="Planet-34" data-name="Planet" class="cls-63" cx="746.88" cy="937.32" r="5.16"/><circle id="Planet-35" data-name="Planet" class="cls-64" cx="647.45" cy="797.08" r="5.16"/><circle id="Planet-36" data-name="Planet" class="cls-65" cx="732.9" cy="880.35" r="5.16"/><circle id="Planet-37" data-name="Planet" class="cls-66" cx="652.61" cy="894.92" r="5.16"/><circle id="Planet-38" data-name="Planet" class="cls-67" cx="609.01" cy="769.41" r="5.16"/><circle id="Planet-39" data-name="Planet" class="cls-68" cx="657.77" cy="852.24" r="5.16"/><circle id="Planet-40" data-name="Planet" class="cls-69" cx="626.78" cy="833.19" r="5.16"/><circle id="Planet-41" data-name="Planet" class="cls-70" cx="626.78" cy="950" r="5.16"/><circle id="Planet-42" data-name="Planet" class="cls-71" cx="528.57" cy="857.4" r="5.16"/><circle id="Planet-43" data-name="Planet" class="cls-72" cx="852.34" cy="836.01" r="5.16"/><circle id="Planet-44" data-name="Planet" class="cls-73" cx="789.89" cy="803.55" r="5.16"/><circle id="Planet-45" data-name="Planet" class="cls-74" cx="631.94" cy="880.35" r="5.16"/></g><circle id="Planet-46" data-name="Planet" class="cls-75" cx="793.1" cy="1127.01" r="10"/><circle id="Planet-47" data-name="Planet" class="cls-76" cx="543.41" cy="646.43" r="10"/><circle id="Planet-48" data-name="Planet" class="cls-77" cx="829.41" cy="613.19" r="10"/></g></g></svg>