<svg id="Capa_1" data-name="Capa 1" xmlns="http://www.w3.org/2000/svg" viewBox="0 0 375.38 266.72"><defs><style>.cls-1,.cls-2{fill:#fff;}.cls-2{stroke:#cb3c83;stroke-width:5.78px;}.cls-2,.cls-3{stroke-miterlimit:10;}.cls-3{fill:#cb3c83;stroke:#fff;stroke-width:2.83px;}</style></defs><title>Sin título-10</title><path class="cls-1" d="M417.05,137.46a194.54,194.54,0,0,0-23,6.24c-7.57,2.51-15,5.41-22.38,8.51a335.54,335.54,0,0,0-42.55,22A360.78,360.78,0,0,0,255,234.77a400.06,400.06,0,0,0-56.52,77.44,491.27,491.27,0,0,0-38.56,88,491.65,491.65,0,0,1,37.91-88.34,401.18,401.18,0,0,1,56.08-78.1,362.65,362.65,0,0,1,74-61.44,338,338,0,0,1,42.69-22.51c7.4-3.18,14.89-6.17,22.52-8.76a196.68,196.68,0,0,1,23.37-6.53Z" transform="translate(-159.93 -133.48)"/><path class="cls-1" d="M507.21,184.39c-8.36,2-16.72,4.38-25,6.87s-16.54,5.16-24.72,8q-24.58,8.44-48.56,18.53t-47.22,21.76c-7.77,3.84-15.4,8-23,12.05l-11.34,6.36c-1.9,1-3.76,2.15-5.62,3.26l-5.59,3.32c-14.87,8.91-29.49,18.26-43.56,28.39l-5.31,3.75-5.2,3.9c-3.45,2.62-7,5.17-10.37,7.85-6.76,5.43-13.6,10.76-20.11,16.5a493.15,493.15,0,0,0-71.61,75.29A493.53,493.53,0,0,1,231,324.34c6.48-5.79,13.29-11.18,20-16.67,3.4-2.7,6.89-5.29,10.33-7.93l5.18-3.95,5.29-3.8c14-10.25,28.61-19.73,43.45-28.77l5.58-3.36c1.86-1.13,3.72-2.25,5.61-3.31l11.32-6.46c7.63-4.16,15.25-8.34,23-12.25Q384.06,226,408,215.7t48.58-18.94q12.29-4.35,24.76-8.19c8.32-2.56,16.65-5,25.15-7.1Z" transform="translate(-159.93 -133.48)"/><path class="cls-1" d="M391.12,301.41a78.21,78.21,0,0,0-7.86-1c-1.33-.11-2.66-.2-4-.25s-2.68-.1-4-.13c-5.36-.1-10.73.08-16.09.47a225.23,225.23,0,0,0-31.89,4.86,269.75,269.75,0,0,0-31,9c-5.1,1.75-10.1,3.79-15.11,5.79l-7.43,3.22c-2.49,1-4.89,2.28-7.35,3.4-4.92,2.23-9.66,4.82-14.48,7.25L244.78,338l-3.54,2L237.76,342l-7,4.16c-2.3,1.42-4.55,2.91-6.83,4.36-4.59,2.86-9,6-13.47,9a500,500,0,0,0-50.58,40.61A500.36,500.36,0,0,1,210.06,359c4.43-3.11,8.82-6.29,13.39-9.21,2.27-1.48,4.51-3,6.8-4.45l6.93-4.25,3.47-2.12,3.53-2,7.07-4c4.81-2.5,9.54-5.15,14.46-7.45,2.45-1.16,4.85-2.43,7.34-3.51l7.43-3.32c5-2.07,10-4.18,15.13-6a271.84,271.84,0,0,1,31.16-9.46,227.68,227.68,0,0,1,32.18-5.29c5.43-.45,10.88-.7,16.34-.66,1.37,0,2.73,0,4.1.09s2.73.11,4.1.21a80.18,80.18,0,0,1,8.25.93Z" transform="translate(-159.93 -133.48)"/><path class="cls-1" d="M237.37,197.73l-3.16-2.92a.75.75,0,0,0-.67-.18l-4.2,1a.75.75,0,0,1-.84-1l1.8-3.91a.75.75,0,0,0,0-.69l-2.2-3.7a.75.75,0,0,1,.73-1.13l4.27.5a.75.75,0,0,0,.65-.25l2.84-3.24a.75.75,0,0,1,1.3.35l.84,4.22a.75.75,0,0,0,.44.54l4,1.7a.75.75,0,0,1,.07,1.34l-3.75,2.11a.75.75,0,0,0-.38.58l-.39,4.28A.75.75,0,0,1,237.37,197.73Z" transform="translate(-159.93 -133.48)"/><circle class="cls-1" cx="282.23" cy="159.2" r="4.01"/><path class="cls-2" d="M427.82,141.21l21.57,32.45a10.86,10.86,0,0,0,8.87,4.85l39,.62a10.86,10.86,0,0,1,8.34,17.6l-24.19,30.54a10.86,10.86,0,0,0-1.87,9.93l11.45,37.24a10.86,10.86,0,0,1-14.16,13.37l-36.52-13.57a10.86,10.86,0,0,0-10,1.29l-31.88,22.4a10.86,10.86,0,0,1-17.09-9.34l1.62-38.93a10.86,10.86,0,0,0-4.33-9.13l-31.15-23.4A10.86,10.86,0,0,1,351,198l37.52-10.49a10.86,10.86,0,0,0,7.35-6.94l12.63-36.86A10.86,10.86,0,0,1,427.82,141.21Z" transform="translate(-159.93 -133.48)"/><path class="cls-3" d="M427.74,180.2l11.95,18a4.33,4.33,0,0,0,3.54,1.93l21.57.34a4.33,4.33,0,0,1,3.33,7l-13.4,16.91a4.33,4.33,0,0,0-.74,4L460.32,249a4.33,4.33,0,0,1-5.65,5.33l-20.22-7.51a4.33,4.33,0,0,0-4,.52l-17.65,12.4A4.33,4.33,0,0,1,406,256l.9-21.56a4.33,4.33,0,0,0-1.73-3.64l-17.25-13a4.33,4.33,0,0,1,1.43-7.63l20.78-5.81A4.33,4.33,0,0,0,413,201.6l7-20.41A4.33,4.33,0,0,1,427.74,180.2Z" transform="translate(-159.93 -133.48)"/><path class="cls-1" d="M372.25,335.22l-6.39.72a1.12,1.12,0,0,0-.86.58l-3,5.67a1.12,1.12,0,0,1-2-.06l-2.66-5.85a1.12,1.12,0,0,0-.82-.64l-6.33-1.13a1.12,1.12,0,0,1-.56-1.92l4.74-4.34a1.12,1.12,0,0,0,.35-1l-.88-6.37a1.12,1.12,0,0,1,1.66-1.12l5.59,3.17a1.12,1.12,0,0,0,1,0l5.78-2.81a1.12,1.12,0,0,1,1.58,1.23l-1.29,6.3a1.12,1.12,0,0,0,.29,1l4.46,4.63A1.12,1.12,0,0,1,372.25,335.22Z" transform="translate(-159.93 -133.48)"/><path class="cls-1" d="M466.73,159.8l-2.61-2.41a.62.62,0,0,0-.56-.15l-3.47.79a.62.62,0,0,1-.7-.86l1.48-3.23a.62.62,0,0,0,0-.57L459,150.31a.62.62,0,0,1,.6-.93l3.53.41a.62.62,0,0,0,.54-.21l2.34-2.67a.62.62,0,0,1,1.07.29l.7,3.48a.62.62,0,0,0,.36.45l3.26,1.4a.62.62,0,0,1,.06,1.11l-3.1,1.74a.62.62,0,0,0-.31.48l-.32,3.54A.62.62,0,0,1,466.73,159.8Z" transform="translate(-159.93 -133.48)"/><circle class="cls-1" cx="363.1" cy="88.48" r="12.28"/><circle class="cls-1" cx="12.36" cy="196.32" r="4.43"/></svg>